<svg width="304.915625" height="304.915625" viewBox="0 0 156.25 156.25" xmlns="http://www.w3.org/2000/svg">
    <g fill="#1b7100" transform="matrix(3.125,0,0,3.125,0.15624798834323883,0)">
        <path d="M24.95 0a25 25 0 1 0 25 25 25 25 0 0 0-25-25zm0 46.91a22 22 0 1 1 22-22 22 22 0 0 1-22 21.99z"/>
        <path d="M24.95 3.65a21.3 21.3 0 1 0 21.3 21.3 21.33 21.33 0 0 0-21.3-21.3z"/>
    </g>

    <g fill="#ffffff" transform="matrix(1.7921466970079523,0,0,1.7921466970079523,27.998718744304345,26.672935552205065)">
        <path d="M0.28 15.56 c0.12 -3.64 4.08 -4.68 6.68 -4.64 c6 0.08 14 -0.16 14.08 -0.12 c1.28 1.16 0.96 27.84 0.08 28.56 c-0.24 0.24 -2.2 0.4 -4.84 0.52 c2.2 1.44 4.68 3.04 8.84 2.96 c7.24 -0.16 -3.8 4 -7.88 3.52 c-4.04 -0.52 -4.96 -4.12 -8.92 -4.24 c-4 -0.04 -5.4 1.8 -6.16 1.36 c-0.8 -0.44 0.4 -1.76 0.4 -1.76 s0.96 -0.88 2.44 -1.8 c-2.6 -0.08 -4.48 -0.28 -4.64 -0.56 c-0.6 -1.08 -0.32 -16.08 -0.08 -23.8 z
      M9.72 16.72 l-0.28 11.64 l-0.08 5.24 c-0.04 0.76 0.56 1.36 1.28 1.4 c0.76 0 1.4 -0.6 1.4 -1.36 l0.08 -5.24 l0.28 -11.6 c0.04 -0.72 -0.56 -1.36 -1.28 -1.36 c-0.8 0 -1.4 0.56 -1.4 1.28 z
      M28.452 11.04 c0.04 -0.04 5.72 -0.12 11.8 -0.16 c-0.28 3.8 0.2 6.64 0.2 6.64 c0.16 0.72 0.88 1.2 1.6 1.08 c2 -0.36 0.4 -2.44 0.88 -7.72 c6.04 -0.08 11.72 -0.12 11.8 -0.08 c1.6 1.16 1.2 27.8 0.12 28.56 c-0.24 0.16 -1.72 0.32 -3.84 0.44 c-1.12 -1.36 -3.88 -5.48 -2.44 -11.36 c0.36 -1.68 -2.24 -2.32 -2.6 -0.6 c-1.36 5.44 0.36 9.68 1.88 12.04 c-3.68 0.12 -8.12 0.16 -11.84 0.08 c1.52 -2.4 3.24 -6.6 1.96 -12.12 c-0.44 -1.72 -3.04 -1.08 -2.6 0.6 c1.4 6.04 -1.52 10.2 -2.6 11.44 c-2.48 -0.12 -4.24 -0.28 -4.44 -0.52 c-1 -1.44 0 -28.28 0.12 -28.32 z"/>
    </g>
</svg>
