<svg xmlns="http://www.w3.org/2000/svg" width="100" height="256" viewBox="0 0 100 256">
    <path fill="#447c93" d="M5,65 L50,0 L95,65 L50,10 Z M5,176 L50,256 L95,171 L50,246 Z"/>
    <g transform="translate(0,60) scale(4.8)" fill="#283d89">
        <path d="M1.44 18.78l-0.64 -0.64l0 -10.28l1.86 -1.86l1.86 0l0 2.52l-0.82 0l-0.38 0.38l0 7.98zM3.68 20.84l0 -0.84l-1.02 0l-0.64 -0.64l1.9 -1.88l2.02 0l1.9 1.88l-0.64 0.64l-1 0l0 0.84l-2.52 0zM8.42 18.78l-1.88 -1.9l0 -7.98l-0.38 -0.38l-0.8 0l0 -2.52l1.84 0l1.86 1.86l0 10.28zM14.46 15.66l-3.8 -9.66l2.7 0l2.1 5.3l2.08 -5.3l2.7 0l-3.8 9.66l-1.98 0zM10.7 20l0 -11.62l2.52 6.42l0 5.2l-2.52 0zM17.7 20l0 -5.2l2.52 -6.42l0 11.62l-2.52 0z"/>
    </g>
</svg>
